<svg width="101" height="100" viewBox="0 0 101 100" fill="none" xmlns="http://www.w3.org/2000/svg">
<g clip-path="url(#clip0)">
<rect width="100" height="100" transform="translate(0.666626)" fill="white"/>
<path d="M101 50C101 22.3857 78.6143 -7.62939e-06 51 -7.62939e-06C23.3857 -7.62939e-06 1 22.3857 1 50C1 74.9564 19.2843 95.6416 43.1875 99.3926V64.4531H30.4922V50H43.1875V38.9844C43.1875 26.4531 50.6521 19.5312 62.0732 19.5312C67.5437 19.5312 73.2656 20.5078 73.2656 20.5078V32.8125H66.9607C60.7495 32.8125 58.8125 36.6667 58.8125 40.6208V50H72.6797L70.4629 64.4531H58.8125V99.3926C82.7157 95.6416 101 74.9564 101 50Z" fill="#1B1B1B"/>
<path d="M70.4629 64.4531L72.6797 50H58.8125V40.6208C58.8125 36.6667 60.7495 32.8125 66.9608 32.8125H73.2657V20.5078C73.2657 20.5078 67.5437 19.5312 62.0733 19.5312C50.6522 19.5312 43.1875 26.4531 43.1875 38.9844V50H30.4922V64.4531H43.1875V99.3926C45.7331 99.792 48.3422 100 51 100C53.6578 100 56.2669 99.792 58.8125 99.3926V64.4531H70.4629Z" fill="white"/>
</g>
<defs>
<clipPath id="clip0">
<rect width="100" height="100" fill="white" transform="translate(0.666626)"/>
</clipPath>
</defs>
</svg>
