<svg width="100" height="100" viewBox="0 0 100 100" fill="none" xmlns="http://www.w3.org/2000/svg">
<g clip-path="url(#clip0)">
<rect width="100" height="100" fill="white"/>
<path d="M50 -0.00012207C36.4207 -0.00012207 34.718 0.057439 29.3849 0.30077C24.063 0.543506 20.4283 1.38881 17.2479 2.62472C13.9599 3.9025 11.1716 5.61218 8.39184 8.39183C5.61217 11.1715 3.9025 13.9601 2.62474 17.248C1.38876 20.4284 0.543531 24.0631 0.300633 29.385C0.0573439 34.718 -0.000183105 36.4208 -0.000183105 50.0001C-0.000183105 63.5792 0.0573439 65.2819 0.300633 70.6149C0.543531 75.9369 1.38876 79.5716 2.62474 82.7519C3.9025 86.0399 5.61217 88.8283 8.39184 91.6081C11.1716 94.3878 13.9599 96.0974 17.2479 97.3752C20.4283 98.6111 24.063 99.4564 29.3849 99.6992C34.718 99.9425 36.4207 100 50 100C63.5791 100 65.2818 99.9425 70.6149 99.6992C75.9368 99.4564 79.5715 98.6111 82.7519 97.3752C86.0398 96.0974 88.8282 94.3878 91.608 91.6081C94.3877 88.8283 96.0974 86.0399 97.3752 82.7519C98.6111 79.5716 99.4564 75.9369 99.6991 70.6149C99.9424 65.2819 100 63.5792 100 50.0001C100 36.4208 99.9424 34.718 99.6991 29.385C99.4564 24.0631 98.6111 20.4284 97.3752 17.248C96.0974 13.9601 94.3877 11.1715 91.608 8.39183C88.8282 5.61218 86.0398 3.9025 82.7519 2.62472C79.5715 1.38881 75.9368 0.543506 70.6149 0.30077C65.2818 0.057439 63.5791 -0.00012207 50 -0.00012207ZM50 9.00889C63.3505 9.00889 64.9319 9.0599 70.2042 9.30045C75.0792 9.52274 77.7267 10.3373 79.4885 11.022C81.8224 11.9291 83.488 13.0125 85.2376 14.7621C86.9873 16.5119 88.0708 18.1775 88.9779 20.5113C89.6626 22.2732 90.4771 24.9207 90.6994 29.7956C90.94 35.068 90.991 36.6494 90.991 50.0001C90.991 63.3505 90.94 64.932 90.6994 70.2043C90.4771 75.0793 89.6626 77.7267 88.9779 79.4886C88.0708 81.8225 86.9873 83.4881 85.2376 85.2377C83.488 86.9874 81.8224 88.0709 79.4885 88.9779C77.7267 89.6627 75.0792 90.4772 70.2042 90.6994C64.9327 90.94 63.3515 90.9911 50 90.9911C36.6483 90.9911 35.0673 90.94 29.7956 90.6994C24.9206 90.4772 22.2732 89.6627 20.5113 88.9779C18.1774 88.0709 16.5118 86.9874 14.7622 85.2377C13.0126 83.4881 11.929 81.8225 11.022 79.4886C10.3372 77.7267 9.52278 75.0793 9.30035 70.2043C9.05977 64.932 9.00883 63.3505 9.00883 50.0001C9.00883 36.6494 9.05977 35.068 9.30035 29.7956C9.52278 24.9207 10.3372 22.2732 11.022 20.5113C11.929 18.1775 13.0125 16.5119 14.7621 14.7623C16.5118 13.0125 18.1774 11.9291 20.5113 11.022C22.2732 10.3373 24.9206 9.52274 29.7956 9.30045C35.0679 9.0599 36.6493 9.00889 50 9.00889Z" fill="#1B1B1B"/>
<path d="M50 66.6666C40.7951 66.6666 33.3332 59.2047 33.3332 50C33.3332 40.7951 40.7951 33.3332 50 33.3332C59.2047 33.3332 66.6666 40.7951 66.6666 50C66.6666 59.2047 59.2047 66.6666 50 66.6666ZM50 24.3242C35.8195 24.3242 24.3242 35.8195 24.3242 50C24.3242 64.1803 35.8195 75.6756 50 75.6756C64.1803 75.6756 75.6756 64.1803 75.6756 50C75.6756 35.8195 64.1803 24.3242 50 24.3242Z" fill="#1B1B1B"/>
<path d="M82.6902 23.3098C82.6902 26.6236 80.0038 29.3097 76.6901 29.3097C73.3765 29.3097 70.6901 26.6236 70.6901 23.3098C70.6901 19.9961 73.3765 17.3097 76.6901 17.3097C80.0038 17.3097 82.6902 19.9961 82.6902 23.3098Z" fill="#1B1B1B"/>
</g>
<defs>
<clipPath id="clip0">
<rect width="100" height="100" fill="white"/>
</clipPath>
</defs>
</svg>
