<svg width="256" height="256" viewBox="0 0 256 256" fill="none" xmlns="http://www.w3.org/2000/svg">
<rect width="256" height="256" fill="#F9005A"/>
<g clip-path="url(#clip0)">
<path d="M128 26.9997C108.718 26.9997 106.3 27.0815 98.7269 27.427C91.1697 27.7717 86.0085 28.972 81.4923 30.727C76.8234 32.5415 72.8639 34.9692 68.9167 38.9163C64.9695 42.8634 62.5418 46.8232 60.7274 51.4921C58.9723 56.0082 57.7721 61.1695 57.4272 68.7266C57.0817 76.2995 57 78.7174 57 98C57 117.282 57.0817 119.7 57.4272 127.273C57.7721 134.83 58.9723 139.992 60.7274 144.508C62.5418 149.177 64.9695 153.136 68.9167 157.083C72.8639 161.031 76.8234 163.458 81.4923 165.273C86.0085 167.028 91.1697 168.228 98.7269 168.573C106.3 168.918 108.718 169 128 169C147.283 169 149.7 168.918 157.273 168.573C164.831 168.228 169.992 167.028 174.508 165.273C179.177 163.458 183.136 161.031 187.084 157.083C191.031 153.136 193.459 149.177 195.273 144.508C197.028 139.992 198.228 134.83 198.573 127.273C198.919 119.7 199 117.282 199 98C199 78.7174 198.919 76.2995 198.573 68.7266C198.228 61.1695 197.028 56.0082 195.273 51.4921C193.459 46.8232 191.031 42.8634 187.084 38.9163C183.136 34.9692 179.177 32.5415 174.508 30.727C169.992 28.972 164.831 27.7717 157.273 27.427C149.7 27.0815 147.283 26.9997 128 26.9997ZM128 39.7925C146.958 39.7925 149.204 39.865 156.69 40.2065C163.613 40.5222 167.372 41.6789 169.874 42.6512C173.188 43.9392 175.553 45.4777 178.038 47.9621C180.522 50.4468 182.061 52.8119 183.349 56.126C184.321 58.6279 185.478 62.3873 185.793 69.3097C186.135 76.7964 186.207 79.0421 186.207 98C186.207 116.958 186.135 119.203 185.793 126.69C185.478 133.612 184.321 137.372 183.349 139.874C182.061 143.188 180.522 145.553 178.038 148.037C175.553 150.522 173.188 152.061 169.874 153.349C167.372 154.321 163.613 155.478 156.69 155.793C149.205 156.135 146.959 156.207 128 156.207C109.041 156.207 106.796 156.135 99.31 155.793C92.3875 155.478 88.6281 154.321 86.1263 153.349C82.8122 152.061 80.447 150.522 77.9626 148.037C75.4782 145.553 73.9394 143.188 72.6515 139.874C71.6791 137.372 70.5226 133.612 70.2068 126.69C69.8651 119.203 69.7928 116.958 69.7928 98C69.7928 79.0421 69.8651 76.7964 70.2068 69.3097C70.5226 62.3873 71.6791 58.6279 72.6515 56.126C73.9394 52.8119 75.4781 50.4467 77.9625 47.9624C80.447 45.4777 82.8122 43.9392 86.1263 42.6512C88.6281 41.6789 92.3875 40.5222 99.31 40.2065C106.797 39.865 109.042 39.7925 128 39.7925Z" fill="white"/>
<path d="M128 121.667C114.929 121.667 104.333 111.071 104.333 98C104.333 84.929 114.929 74.3332 128 74.3332C141.071 74.3332 151.667 84.929 151.667 98C151.667 111.071 141.071 121.667 128 121.667V121.667ZM128 61.5404C107.864 61.5404 91.5406 77.8637 91.5406 98C91.5406 118.136 107.864 134.459 128 134.459C148.136 134.459 164.46 118.136 164.46 98C164.46 77.8637 148.136 61.5404 128 61.5404Z" fill="white"/>
<path d="M174.42 60.0999C174.42 64.8054 170.606 68.6198 165.9 68.6198C161.195 68.6198 157.38 64.8054 157.38 60.0999C157.38 55.3944 161.195 51.5797 165.9 51.5797C170.606 51.5797 174.42 55.3944 174.42 60.0999" fill="white"/>
</g>
<path d="M38.7564 196.909H33.4865V226H38.7564V196.909Z" fill="white"/>
<path d="M49.3778 213.216C49.3778 210.062 51.2813 208.244 53.9943 208.244C56.6506 208.244 58.2415 209.991 58.2415 212.903V226H63.3835V212.108C63.3977 206.881 60.4148 203.898 55.9119 203.898C52.6449 203.898 50.4006 205.46 49.4063 207.889H49.1506V204.182H44.2358V226H49.3778V213.216Z" fill="white"/>
<path d="M85.8551 209.949C85.1449 206.256 82.1903 203.898 77.0767 203.898C71.821 203.898 68.2415 206.483 68.2557 210.517C68.2415 213.699 70.2017 215.801 74.3921 216.668L78.1136 217.449C80.1165 217.889 81.054 218.699 81.054 219.935C81.054 221.426 79.4347 222.548 76.9915 222.548C74.6335 222.548 73.0994 221.526 72.6591 219.565L67.6449 220.048C68.2841 224.054 71.6506 226.426 77.0057 226.426C82.4602 226.426 86.3097 223.599 86.3239 219.466C86.3097 216.355 84.3068 214.452 80.1875 213.557L76.4659 212.761C74.25 212.264 73.3693 211.497 73.3835 210.233C73.3693 208.756 75.0028 207.733 77.1477 207.733C79.5199 207.733 80.7699 209.026 81.1676 210.46L85.8551 209.949Z" fill="white"/>
<path d="M101.459 204.182H97.1548V198.955H92.0128V204.182H88.9162V208.159H92.0128V220.29C91.9844 224.395 94.9673 226.412 98.831 226.298C100.294 226.256 101.303 225.972 101.857 225.787L100.99 221.767C100.706 221.838 100.124 221.966 99.4844 221.966C98.1918 221.966 97.1548 221.511 97.1548 219.437V208.159H101.459V204.182Z" fill="white"/>
<path d="M112.038 226.44C115.461 226.44 117.506 224.835 118.444 223.003H118.614V226H123.558V211.398C123.558 205.631 118.856 203.898 114.694 203.898C110.106 203.898 106.583 205.943 105.447 209.92L110.248 210.602C110.759 209.111 112.208 207.832 114.722 207.832C117.109 207.832 118.415 209.054 118.415 211.199V211.284C118.415 212.761 116.867 212.832 113.018 213.244C108.785 213.699 104.737 214.963 104.737 219.878C104.737 224.168 107.876 226.44 112.038 226.44ZM113.373 222.662C111.228 222.662 109.694 221.682 109.694 219.793C109.694 217.818 111.413 216.994 113.714 216.668C115.063 216.483 117.762 216.142 118.43 215.602V218.173C118.43 220.602 116.469 222.662 113.373 222.662Z" fill="white"/>
<path d="M138.217 234.551C144.112 234.551 148.458 231.852 148.458 226.355V204.182H143.387V207.79H143.103C142.322 206.213 140.688 203.898 136.839 203.898C131.796 203.898 127.833 207.847 127.833 215.02C127.833 222.136 131.796 225.687 136.825 225.687C140.56 225.687 142.308 223.685 143.103 222.08H143.359V226.213C143.359 229.338 141.228 230.659 138.302 230.659C135.205 230.659 133.842 229.196 133.217 228.003L128.586 229.125C129.523 232.094 132.663 234.551 138.217 234.551ZM138.259 221.653C134.864 221.653 133.075 219.011 133.075 214.991C133.075 211.028 134.836 208.116 138.259 208.116C141.569 208.116 143.387 210.858 143.387 214.991C143.387 219.153 141.54 221.653 138.259 221.653Z" fill="white"/>
<path d="M153.728 226H158.87V213.173C158.87 210.403 160.958 208.443 163.785 208.443C164.651 208.443 165.731 208.599 166.171 208.741V204.011C165.702 203.926 164.893 203.869 164.325 203.869C161.825 203.869 159.737 205.29 158.941 207.818H158.714V204.182H153.728V226Z" fill="white"/>
<path d="M175.436 226.44C178.859 226.44 180.905 224.835 181.842 223.003H182.013V226H186.956V211.398C186.956 205.631 182.254 203.898 178.092 203.898C173.504 203.898 169.982 205.943 168.845 209.92L173.646 210.602C174.158 209.111 175.607 207.832 178.121 207.832C180.507 207.832 181.814 209.054 181.814 211.199V211.284C181.814 212.761 180.266 212.832 176.416 213.244C172.183 213.699 168.135 214.963 168.135 219.878C168.135 224.168 171.274 226.44 175.436 226.44ZM176.771 222.662C174.626 222.662 173.092 221.682 173.092 219.793C173.092 217.818 174.811 216.994 177.112 216.668C178.462 216.483 181.161 216.142 181.828 215.602V218.173C181.828 220.602 179.868 222.662 176.771 222.662Z" fill="white"/>
<path d="M192.126 226H197.268V212.733C197.268 210.048 199.058 208.23 201.274 208.23C203.447 208.23 204.939 209.693 204.939 211.937V226H209.982V212.392C209.982 209.935 211.445 208.23 213.93 208.23C216.004 208.23 217.652 209.452 217.652 212.151V226H222.808V211.355C222.808 206.483 219.996 203.898 215.99 203.898C212.822 203.898 210.408 205.46 209.442 207.889H209.214C208.376 205.418 206.26 203.898 203.32 203.898C200.393 203.898 198.206 205.403 197.297 207.889H197.041V204.182H192.126V226Z" fill="white"/>
<defs>
<clipPath id="clip0">
<rect width="142" height="142" fill="white" transform="translate(57 27)"/>
</clipPath>
</defs>
</svg>
