<svg width="256" height="256" viewBox="0 0 256 256" fill="none" xmlns="http://www.w3.org/2000/svg">
<rect width="256" height="256" fill="#1DB954"/>
<path d="M171.696 91.6174C147.885 77.4766 108.609 76.1764 85.878 83.0753C82.2276 84.1832 78.3674 82.1217 77.2617 78.4725C76.1553 74.8197 78.2137 70.9624 81.8668 69.8527C107.96 61.9324 151.337 63.4619 178.749 79.7339C182.032 81.6833 183.109 85.9235 181.163 89.2012C179.215 92.4843 174.971 93.5665 171.696 91.6174V91.6174ZM170.916 112.562C169.246 115.273 165.702 116.123 162.994 114.458C143.143 102.256 112.872 98.721 89.3867 105.85C86.3411 106.77 83.1242 105.053 82.199 102.013C81.2814 98.9677 82.9995 95.7567 86.0396 94.8305C112.869 86.6892 146.221 90.6326 169.022 104.644C171.729 106.311 172.581 109.857 170.916 112.562ZM161.878 132.676C160.55 134.853 157.716 135.535 155.547 134.208C138.2 123.607 116.367 121.213 90.6536 127.085C88.1758 127.654 85.7063 126.101 85.1413 123.623C84.5737 121.146 86.1206 118.677 88.6038 118.111C116.742 111.678 140.88 114.447 160.35 126.345C162.521 127.67 163.204 130.506 161.878 132.676ZM128 26.1308C87.2039 26.1308 54.1309 59.2032 54.1309 99.9989C54.1309 140.8 87.2039 173.869 128 173.869C168.798 173.869 201.869 140.8 201.869 99.9989C201.869 59.2032 168.798 26.1308 128 26.1308Z" fill="white"/>
<path d="M51.7873 226H57.0572V216.17H62.6254C69.3441 216.17 72.9521 212.136 72.9521 206.54C72.9521 200.986 69.3867 196.909 62.6964 196.909H51.7873V226ZM57.0572 211.838V201.312H61.8867C65.8356 201.312 67.5827 203.443 67.5827 206.54C67.5827 209.636 65.8356 211.838 61.9151 211.838H57.0572Z" fill="white"/>
<path d="M86.5068 226.426C92.8988 226.426 96.9613 221.923 96.9613 215.176C96.9613 208.415 92.8988 203.898 86.5068 203.898C80.1147 203.898 76.0522 208.415 76.0522 215.176C76.0522 221.923 80.1147 226.426 86.5068 226.426ZM86.5352 222.307C82.9982 222.307 81.2653 219.153 81.2653 215.162C81.2653 211.17 82.9982 207.974 86.5352 207.974C90.0153 207.974 91.7482 211.17 91.7482 215.162C91.7482 219.153 90.0153 222.307 86.5352 222.307Z" fill="white"/>
<path d="M109.422 226.384C113.172 226.384 114.863 224.153 115.672 222.562H115.985V226H121.042V196.909H115.885V207.79H115.672C114.891 206.213 113.286 203.898 109.436 203.898C104.394 203.898 100.431 207.847 100.431 215.119C100.431 222.307 104.28 226.384 109.422 226.384ZM110.857 222.165C107.462 222.165 105.672 219.182 105.672 215.091C105.672 211.028 107.434 208.116 110.857 208.116C114.167 208.116 115.985 210.858 115.985 215.091C115.985 219.324 114.138 222.165 110.857 222.165Z" fill="white"/>
<path d="M136.038 226.426C141.521 226.426 145.015 223.173 145.385 218.543H140.47C140.029 220.886 138.339 222.236 136.081 222.236C132.87 222.236 130.797 219.551 130.797 215.091C130.797 210.687 132.913 208.045 136.081 208.045C138.552 208.045 140.072 209.636 140.47 211.739H145.385C145.029 207.009 141.336 203.898 136.01 203.898C129.618 203.898 125.583 208.514 125.583 215.176C125.583 221.781 129.518 226.426 136.038 226.426Z" fill="white"/>
<path d="M155.885 226.44C159.309 226.44 161.354 224.835 162.292 223.003H162.462V226H167.405V211.398C167.405 205.631 162.703 203.898 158.542 203.898C153.953 203.898 150.431 205.943 149.294 209.92L154.096 210.602C154.607 209.111 156.056 207.832 158.57 207.832C160.956 207.832 162.263 209.054 162.263 211.199V211.284C162.263 212.761 160.715 212.832 156.865 213.244C152.632 213.699 148.584 214.963 148.584 219.878C148.584 224.168 151.723 226.44 155.885 226.44ZM157.221 222.662C155.076 222.662 153.542 221.682 153.542 219.793C153.542 217.818 155.26 216.994 157.561 216.668C158.911 216.483 161.61 216.142 162.277 215.602V218.173C162.277 220.602 160.317 222.662 157.221 222.662Z" fill="white"/>
<path d="M189.82 209.949C189.11 206.256 186.155 203.898 181.042 203.898C175.786 203.898 172.206 206.483 172.221 210.517C172.206 213.699 174.167 215.801 178.357 216.668L182.078 217.449C184.081 217.889 185.019 218.699 185.019 219.935C185.019 221.426 183.399 222.548 180.956 222.548C178.598 222.548 177.064 221.526 176.624 219.565L171.61 220.048C172.249 224.054 175.615 226.426 180.971 226.426C186.425 226.426 190.275 223.599 190.289 219.466C190.275 216.355 188.272 214.452 184.152 213.557L180.431 212.761C178.215 212.264 177.334 211.497 177.348 210.233C177.334 208.756 178.968 207.733 181.113 207.733C183.485 207.733 184.735 209.026 185.132 210.46L189.82 209.949Z" fill="white"/>
<path d="M205.424 204.182H201.12V198.955H195.978V204.182H192.881V208.159H195.978V220.29C195.949 224.395 198.932 226.412 202.796 226.298C204.259 226.256 205.267 225.972 205.821 225.787L204.955 221.767C204.671 221.838 204.088 221.966 203.449 221.966C202.157 221.966 201.12 221.511 201.12 219.437V208.159H205.424V204.182Z" fill="white"/>
</svg>
